<?xml version="1.0" encoding="UTF-8"?>
<!DOCTYPE svg PUBLIC "-//W3C//DTD SVG 1.1//EN" "http://www.w3.org/Graphics/SVG/1.1/DTD/svg11.dtd">
<svg xmlns="http://www.w3.org/2000/svg" version="1.1" width="1024px" height="1024px" style="shape-rendering:geometricPrecision; text-rendering:geometricPrecision; image-rendering:optimizeQuality; fill-rule:evenodd; clip-rule:evenodd" xmlns:xlink="http://www.w3.org/1999/xlink">
<g><path style="opacity:1" fill="#fafafa" d="M -0.5,-0.5 C 340.833,-0.5 682.167,-0.5 1023.5,-0.5C 1023.5,340.833 1023.5,682.167 1023.5,1023.5C 682.167,1023.5 340.833,1023.5 -0.5,1023.5C -0.5,682.167 -0.5,340.833 -0.5,-0.5 Z"/></g>
<g><path style="opacity:1" fill="#172154" d="M 78.5,182.5 C 105.992,183.833 133.825,184.5 162,184.5C 190.238,184.496 218.404,184.163 246.5,183.5C 268.423,240.766 290.257,298.099 312,355.5C 325.333,320.833 338.667,286.167 352,251.5C 370.355,209.748 402.189,186.748 447.5,182.5C 447.611,183.117 447.944,183.617 448.5,184C 512.167,184.667 575.833,184.667 639.5,184C 638.263,183.768 637.263,183.268 636.5,182.5C 674.723,185.02 703.556,202.687 723,235.5C 727.88,244.593 732.214,253.927 736,263.5C 812.685,454.396 889.852,645.062 967.5,835.5C 910.498,835.404 853.498,835.07 796.5,834.5C 794.508,825.851 791.175,817.851 786.5,810.5C 765.834,762.485 745.667,714.152 726,665.5C 713.358,697.46 700.691,729.46 688,761.5C 676.025,795.141 653.525,818.641 620.5,832C 614.568,833.65 608.568,834.983 602.5,836C 534.5,836.667 466.5,836.667 398.5,836C 368.048,830.526 344.215,815.026 327,789.5C 320.532,778.231 314.866,766.565 310,754.5C 233.191,564.049 155.691,373.883 77.5,184C 77.5699,183.235 77.9033,182.735 78.5,182.5 Z"/></g>
<g><path style="opacity:1" fill="#050e48" d="M 447.5,182.5 C 510.5,182.5 573.5,182.5 636.5,182.5C 637.263,183.268 638.263,183.768 639.5,184C 575.833,184.667 512.167,184.667 448.5,184C 447.944,183.617 447.611,183.117 447.5,182.5 Z"/></g>
<g><path style="opacity:1" fill="#060d49" d="M 78.5,182.5 C 134.669,182.168 190.669,182.501 246.5,183.5C 218.404,184.163 190.238,184.496 162,184.5C 133.825,184.5 105.992,183.833 78.5,182.5 Z"/></g>
<g><path style="opacity:1" fill="#fafafa" d="M 414.5,465.5 C 423.173,465.666 431.84,465.5 440.5,465C 442.533,462.104 443.866,458.937 444.5,455.5C 481.395,372.172 517.728,288.506 553.5,204.5C 598.935,319.469 642.602,435.135 684.5,551.5C 683.271,552.281 681.938,552.781 680.5,553C 654.827,553.167 629.16,553.667 603.5,554.5C 568.882,633.736 533.716,712.736 498,791.5C 452.557,683.615 407.391,575.615 362.5,467.5C 379.897,466.82 397.231,466.154 414.5,465.5 Z"/></g>
<g><path style="opacity:1" fill="#060520" d="M 444.5,455.5 C 443.866,458.937 442.533,462.104 440.5,465C 431.84,465.5 423.173,465.666 414.5,465.5C 422.657,464.671 430.99,464.171 439.5,464C 441.067,461.021 442.734,458.188 444.5,455.5 Z"/></g>
<g><path style="opacity:1" fill="#0d1334" d="M 786.5,810.5 C 791.175,817.851 794.508,825.851 796.5,834.5C 853.498,835.07 910.498,835.404 967.5,835.5C 910.668,836.665 853.668,836.832 796.5,836C 792.867,827.6 789.534,819.1 786.5,810.5 Z"/></g>
</svg>
